# xmcd CD database file
#
# Track frame offsets:
#	150
#	11708
#	28959
#	46398
#	59844
#	83566
#	103852
#	115614
#	136594
#	151839
#	177754
#	200644
#
# Disc length: 2866 seconds
#
# Revision: 0
# Processed by: cddbd v1.4PL0 Copyright (c) Steve Scherf et al.
# Submitted via: CDex 1.50
#
DISCID=9b0b300c
DTITLE=Paul Personne - Demain il f'ra beau
DYEAR=2003
DGENRE=Blues
TTITLE0=Partir
TTITLE1=Saoule
TTITLE2=La foire à la broquante
TTITLE3=Demain il f'ra beau
TTITLE4=Essayer d'y croire
TTITLE5=En douceur
TTITLE6=Le diable en hiver
TTITLE7=j'me taille
TTITLE8=Les p'tites routes
TTITLE9=Coup d'soleil
TTITLE10=La route
TTITLE11=Monde en couleur(s)
EXTD=YEAR: 2003
EXTT0=
EXTT1=
EXTT2=
EXTT3=
EXTT4=
EXTT5=
EXTT6=
EXTT7=
EXTT8=
EXTT9=
EXTT10=
EXTT11=
PLAYORDER=
